<?xml version="1.0" encoding="UTF-8"?>
<svg width="70px" height="70px" viewBox="0 0 70 70" version="1.1" xmlns="http://www.w3.org/2000/svg" xmlns:xlink="http://www.w3.org/1999/xlink">
    <title>magic /SVG / addschemaMagic_ai</title>
    <g id="magic-/-addschemaMagic_ai" stroke="none" stroke-width="1" fill="none" fill-rule="evenodd">
        <g id="UI-Icons-/-addschemaMagic_ai" transform="translate(8.75, 7.2917)" fill="#39D2C0">
            <path d="M43.0395768,36.4608542 C44.5218048,35.1974197 46.7360336,35.2460133 48.1619539,36.6066351 C48.8646069,37.3047676 49.2595795,38.2544573 49.2592319,39.2449673 C49.2608265,40.2367988 48.8657373,41.1880857 48.1619539,41.8869571 L33.690141,56.3575509 C32.2182013,57.7296449 29.9239244,57.6892521 28.5011958,56.2661949 C27.0784673,54.8431378 27.0386043,52.5488517 28.4110382,51.0772289 L42.8779744,36.6066351 Z M39.6093197,43.3341384 L30.1374145,52.8072628 C29.6333087,53.3126413 29.6333087,54.1306727 30.1374145,54.6360513 C30.6493513,55.1240381 31.4542662,55.1240381 31.966203,54.6360513 L41.4442042,45.1690228 L39.6093197,43.3341384 Z M51.6976117,42.824278 C52.3456394,42.824278 52.915227,43.25368 53.0935869,43.876679 L53.6324699,45.7664271 L55.522218,46.3053101 C56.145217,46.48367 56.574619,47.0532576 56.574619,47.7012853 C56.574619,48.3493131 56.145217,48.9189006 55.522218,49.0972605 L53.6324699,49.6361435 L53.0935869,51.5258916 C52.915227,52.1488906 52.3456394,52.5782926 51.6976117,52.5782926 C51.0495839,52.5782926 50.4799964,52.1488906 50.3016365,51.5258916 L49.7627535,49.6361435 L47.8730053,49.0972605 C47.2500064,48.9189006 46.8206044,48.3493131 46.8206044,47.7012853 C46.8206044,47.0532576 47.2500064,46.48367 47.8730053,46.3053101 L49.7627535,45.7664271 L50.3016365,43.876679 C50.4799964,43.25368 51.0495839,42.824278 51.6976117,42.824278 Z M42,-3.55271368e-15 C44.5773288,-3.55271368e-15 46.6666667,1.98984556 46.6666667,4.44444444 L46.6666667,13.3333333 C46.6666667,14.3843994 46.2835707,15.3502493 45.6431072,16.1111418 C46.2835707,16.8719729 46.6666667,17.8378229 46.6666667,18.8888889 L46.6666168,22.7204647 C45.5377879,22.3845119 44.3680447,22.1435584 43.1666586,22.0068755 L43.1666667,18.8888889 C43.1666667,18.3434225 42.753958,17.8897592 42.2097098,17.7956793 L42,17.7777778 L4.66666667,17.7777778 C4.09392693,17.7777778 3.61758047,18.1708337 3.51879656,18.6891653 L3.5,18.8888889 L3.5,27.7777778 C3.5,28.3232442 3.91270871,28.7769075 4.45695686,28.8709874 L4.66666667,28.8888889 L25.4323146,28.8878924 C24.5382526,29.9143086 23.745117,31.0309446 23.0683708,32.2223373 L4.66666667,32.2222222 C4.09392693,32.2222222 3.61758047,32.6152781 3.51879656,33.1336097 L3.5,33.3333333 L3.5,42.2222222 C3.5,42.7676886 3.91270871,43.2213519 4.45695686,43.3154318 L4.66666667,43.3333333 L20.4427905,43.333545 C20.4999914,44.4715472 20.6503707,45.5849902 20.8864533,46.6663987 L4.66666667,46.6666667 C2.08933783,46.6666667 0,44.6768211 0,42.2222222 L0,33.3333333 C0,32.2822673 0.383095987,31.3164173 1.02355944,30.5555249 C0.383095987,29.7946938 0,28.8288438 0,27.7777778 L0,18.8888889 C0,17.8378229 0.383095987,16.8719729 1.02355944,16.1110804 C0.383095987,15.3502493 0,14.3843994 0,13.3333333 L0,4.44444444 C0,1.98984556 2.08933783,-3.55271368e-15 4.66666667,-3.55271368e-15 L42,-3.55271368e-15 Z M45.8957081,37.9228042 C45.4259681,37.808011 44.9313885,37.9642821 44.6128851,38.3281347 L41.3344769,41.6053237 L43.1632654,43.4402081 L46.4404544,40.1617999 C46.8055261,39.8384197 46.9617972,39.3438401 46.847004,38.8741001 C46.7322107,38.4043601 46.3654481,38.0375975 45.8957081,37.9228042 Z M37.0673037,28.19397 C37.7153315,28.19397 38.2849191,28.623372 38.4632789,29.246371 L39.0021619,31.1361191 L40.8919101,31.6750021 C41.514909,31.853362 41.944311,32.4229496 41.944311,33.0709773 C41.944311,33.7190051 41.514909,34.2885927 40.8919101,34.4669526 L39.0021619,35.0058356 L38.4632789,36.8955837 C38.2849191,37.5185826 37.7153315,37.9479846 37.0673037,37.9479846 C36.419276,37.9479846 35.8496884,37.5185826 35.6713285,36.8955837 L35.1324455,35.0058356 L33.2426974,34.4669526 C32.6196984,34.2885927 32.1902964,33.7190051 32.1902964,33.0709773 C32.1902964,32.4229496 32.6196984,31.853362 33.2426974,31.6750021 L35.1324455,31.1361191 L35.6713285,29.246371 C35.8496884,28.623372 36.419276,28.19397 37.0673037,28.19397 Z M52.3072079,28.2013463 C52.8713143,28.2013463 53.3678576,28.5733292 53.5264002,29.1146982 L53.9982276,30.767923 L55.6514524,31.2397505 C56.1928214,31.398293 56.5648044,31.8948363 56.5648044,32.4589428 C56.5648044,33.0230493 56.1928214,33.5195926 55.6514524,33.6781351 L53.9982276,34.1499625 L53.5264002,35.8068449 C53.3678576,36.3482139 52.8713143,36.7201969 52.3072079,36.7201969 C51.7431014,36.7201969 51.2465581,36.3482139 51.0880155,35.8068449 L50.6161881,34.1548393 L48.9605249,33.6805735 C48.4191559,33.5220309 48.047173,33.0254876 48.047173,32.4613812 C48.047173,31.8972747 48.4191559,31.4007314 48.9605249,31.2421888 L50.6137497,30.7703614 L51.0880155,29.1146982 C51.2465581,28.5733292 51.7431014,28.2013463 52.3072079,28.2013463 Z M31.6666667,21.1111111 C32.2189514,21.1111111 32.6666667,21.5588264 32.6666667,22.1111111 L32.6662978,23.5740062 C31.4201788,24.1184882 30.238915,24.7837622 29.1373068,25.5550278 L29,25.5555556 C28.4477153,25.5555556 28,25.1078403 28,24.5555556 L28,22.1111111 C28,21.5588264 28.4477153,21.1111111 29,21.1111111 L31.6666667,21.1111111 Z M38.6666667,21.1111111 C39.1501777,21.1111111 39.5535408,21.4542646 39.6465015,21.910317 C38.0402388,22.0010736 36.4847553,22.2785988 35.0000498,22.7204647 L35,22.1111111 C35,21.5588264 35.4477153,21.1111111 36,21.1111111 L38.6666667,21.1111111 Z M42,3.33333333 L4.66666667,3.33333333 C4.09392693,3.33333333 3.61758047,3.72638925 3.51879656,4.24472082 L3.5,4.44444444 L3.5,13.3333333 C3.5,13.8787998 3.91270871,14.332463 4.45695686,14.426543 L4.66666667,14.4444444 L42,14.4444444 C42.5727397,14.4444444 43.0490862,14.0513885 43.1478701,13.533057 L43.1666667,13.3333333 L43.1666667,4.44444444 C43.1666667,3.89897802 42.753958,3.44531473 42.2097098,3.35123482 L42,3.33333333 Z M38.6666667,6.66666667 C39.2189514,6.66666667 39.6666667,7.11438192 39.6666667,7.66666667 L39.6666667,10.1111111 C39.6666667,10.6633959 39.2189514,11.1111111 38.6666667,11.1111111 L36,11.1111111 C35.4477153,11.1111111 35,10.6633959 35,10.1111111 L35,7.66666667 C35,7.11438192 35.4477153,6.66666667 36,6.66666667 L38.6666667,6.66666667 Z M31.6666667,6.66666667 C32.2189514,6.66666667 32.6666667,7.11438192 32.6666667,7.66666667 L32.6666667,10.1111111 C32.6666667,10.6633959 32.2189514,11.1111111 31.6666667,11.1111111 L29,11.1111111 C28.4477153,11.1111111 28,10.6633959 28,10.1111111 L28,7.66666667 C28,7.11438192 28.4477153,6.66666667 29,6.66666667 L31.6666667,6.66666667 Z" id="Combined-Shape"></path>
        </g>
    </g>
</svg>