<?xml version="1.0" encoding="UTF-8"?>
<svg width="70px" height="70px" viewBox="0 0 70 70" version="1.1" xmlns="http://www.w3.org/2000/svg" xmlns:xlink="http://www.w3.org/1999/xlink">
    <title>SVG /iconFeatures_4</title>
    <g id="iconFeatures_4" stroke="none" stroke-width="1" fill="none" fill-rule="evenodd">
        <g id="UI-Icons-/-addschemaMagic_ai" transform="translate(2.9167, 2.9167)" fill="#39D2C0">
            <path d="M60.5872057,15.7969628 C61.0814634,15.7969628 61.5900474,15.897247 62.0628156,16.1193048 C63.7246674,16.871436 64.5555933,18.7553456 63.9897041,20.488829 C63.9317893,20.6671459 63.5859214,21.7190173 63.049106,23.3350196 L62.88243,23.8364348 C62.7389213,24.2678683 62.5840846,24.7326261 62.4194358,25.2258734 L62.2172443,25.8311358 C61.4937685,27.9952505 60.6078998,30.6278064 59.6719342,33.3706067 L59.4032493,34.1569544 C59.3582737,34.2884091 59.3132086,34.4200365 59.2680664,34.5517979 L58.9963832,35.3436641 C58.8601753,35.7400915 58.7234907,36.1370282 58.5866568,36.5334301 L58.3128867,37.3252111 C56.7614942,41.8044217 55.2189548,46.1255002 54.1618561,48.768247 C54.5479501,49.8785359 54.6826174,51.0497117 54.5393543,52.2301996 C54.1554092,55.3984629 51.8832566,58.3718883 47.7859322,61.0673834 C47.7465348,61.0931707 47.7064212,61.1175255 47.6655912,61.1397312 C44.3977601,62.9383994 39.0891462,64.2413772 39.0404368,64.2521219 C38.9143652,64.2800582 38.7868611,64.2929519 38.6607896,64.2929519 C38.0970493,64.2929519 37.5576638,64.0271988 37.2159813,63.5608775 C36.7983694,62.9906904 36.7553905,62.2278144 37.1056687,61.6139321 C37.2073855,61.4362858 39.5755244,57.2200531 38.2216882,53.2430696 C37.4380391,50.9479949 37.7890337,48.5834376 39.2087709,46.5863501 C40.0633352,45.3850891 41.2445394,44.4445669 42.5711557,43.8278193 C42.5730539,43.8244024 46.6416683,36.6549854 50.5329316,29.8034467 L50.9724662,29.0295609 C54.2598731,23.2416347 57.3039738,17.886455 57.5070493,17.5447725 C58.1732226,16.4273204 59.3623063,15.7969628 60.5872057,15.7969628 Z M10.207307,7.25776624 C16.0202069,1.98281921 23.5042708,-0.618122212 30.7340427,0.124696917 C37.4659754,0.815225017 42.8369087,4.489207 45.4700843,10.2039717 C48.0173021,15.7317781 47.5416686,22.1428014 44.2287096,26.9342355 C41.6893713,30.6239765 37.8506368,32.7206318 35.0469781,34.2521142 C33.9015897,34.878174 32.7168039,35.5257231 32.3013409,35.9562287 C30.3393529,38.0013093 29.3973981,39.7541333 32.848606,46.8270321 C34.542692,50.18297 34.6078767,53.7473557 33.0119259,56.3404177 C31.8479133,58.2322068 29.2433903,60.4864515 23.4491145,60.4864515 C12.8970715,60.4864515 0.0843369428,47.6722843 0.000528034303,31.7586201 C-0.0503303632,21.9780489 3.57422585,13.276965 10.207307,7.25776624 Z M46.0481509,46.6085559 C44.3440364,46.6085559 43.0088244,47.4222902 42.1270401,48.6622323 C41.6077114,49.3921577 41.0969784,50.5790925 41.6120093,52.0876528 C42.5611272,54.8791341 42.2452321,57.649126 41.6721798,59.7543771 C43.0854702,59.2873395 44.6728252,58.6899324 45.8776678,58.0359364 C48.9721506,55.9872742 50.7371519,53.8311646 50.9835644,51.7989777 C51.1898632,50.1041753 50.4986188,49.0956031 49.715686,48.2288614 C48.9327532,47.3614034 47.751549,46.6085559 46.0481509,46.6085559 Z M30.3694382,3.68836632 C24.1432242,3.05012924 17.6763283,5.31798398 12.6148432,9.91099869 C6.74463806,15.2382367 3.53626113,22.9902026 3.58282164,31.7399959 C3.65373687,45.2934007 14.5668029,56.9055906 23.4498308,56.9055906 C25.7355935,56.9055906 28.72048,56.4822481 29.9618547,54.4643875 C31.0678457,52.6678683 30.5220133,50.1643458 29.6416617,48.4201177 C26.0443254,41.0499479 26.0658149,37.2842776 29.7175911,33.4784935 C30.5141339,32.6475676 31.7569412,31.9692169 33.3299699,31.1096383 C35.9552661,29.6755748 39.2238135,27.8898004 41.2803552,24.9013323 C43.8404666,21.199414 44.2072202,16.0204532 42.2180121,11.70322 C40.1278036,7.16822681 35.8098541,4.24637606 30.3694382,3.68836632 Z M19.1397607,40.6624213 C21.9233626,40.6624213 24.1876358,42.9274107 24.1876358,45.7102963 C24.1876358,48.4931818 21.9233626,50.7581713 19.1397607,50.7581713 C16.3561589,50.7581713 14.0911694,48.4938982 14.0911694,45.7102963 C14.0911694,42.9274107 16.3561589,40.6624213 19.1397607,40.6624213 Z M19.1397607,43.4288316 C17.8819108,43.4288316 16.8575797,44.4524464 16.8575797,45.7110126 C16.8575797,46.9695789 17.8811945,47.9931937 19.1397607,47.9931937 C20.398327,47.9931937 21.4219418,46.9688626 21.4219418,45.7110126 C21.4219418,44.4524464 20.398327,43.4288316 19.1397607,43.4288316 Z M60.5800426,19.3928664 C60.5661938,19.4158203 60.5348209,19.4682306 60.4871453,19.5481129 L60.3528795,19.7733703 C58.870442,22.2628395 50.7630347,35.940032 46.9421126,43.077837 C47.5072855,43.1415891 48.0645789,43.2655116 48.596085,43.4560516 C49.6297282,43.6852725 50.7514782,44.3156301 51.7328304,45.1988471 C52.5597449,43.0063487 53.5615805,40.1886375 54.5897613,37.2242588 L54.8472693,36.4803855 L55.1053592,35.7320627 L55.6212209,34.2287149 C56.8219959,30.7182321 57.9912201,27.2252365 58.8929605,24.5096404 L59.0820104,23.9399028 C59.9443351,21.3392409 60.5223235,19.5702579 60.5800426,19.3928664 Z M15.8654828,24.1234137 C19.9255588,24.1234137 23.227773,27.4263443 23.227773,31.4857039 C23.227773,35.5450636 19.9255588,38.8479942 15.8654828,38.8479942 C11.8061231,38.8479942 8.50390883,35.5450636 8.50390883,31.4857039 C8.50390883,27.4263443 11.8061231,24.1234137 15.8654828,24.1234137 Z M15.8654828,27.704991 C13.7810048,27.704991 12.0854861,29.4005097 12.0854861,31.4857039 C12.0854861,33.5701819 13.7810048,35.2664169 15.8654828,35.2664169 C17.9499608,35.2664169 19.6461958,33.5701819 19.6461958,31.4857039 C19.6461958,29.401226 17.9499608,27.704991 15.8654828,27.704991 Z M29.0041409,8.55859511 C33.9975759,8.55859511 38.0598009,12.6208201 38.0598009,17.6142551 C38.0598009,22.6076902 33.9975759,26.6699151 29.0041409,26.6699151 C24.0107058,26.6699151 19.9484809,22.6076902 19.9484809,17.6142551 C19.9484809,12.6208201 24.0107058,8.55859511 29.0041409,8.55859511 Z M29.0048572,12.1401724 C25.9863039,12.1401724 23.5307745,14.5964181 23.5307745,17.6142551 C23.5307745,20.6328085 25.9863039,23.0883378 29.0048572,23.0883378 C32.0234105,23.0883378 34.4782236,20.6328085 34.4789399,17.6142551 C34.4789399,14.5957018 32.0234105,12.1401724 29.0048572,12.1401724 Z" id="Shape"></path>
        </g>
    </g>
</svg>