<?xml version="1.0" encoding="UTF-8"?>
<svg width="70px" height="70px" viewBox="0 0 70 70" version="1.1" xmlns="http://www.w3.org/2000/svg" xmlns:xlink="http://www.w3.org/1999/xlink">
    <title>SVG /iconFeatures_2</title>
    <g id="iconFeatures_2" stroke="none" stroke-width="1" fill="none" fill-rule="evenodd">
        <g id="UI-Icons-/-addThemeMagic_ai" transform="translate(2.9167, 2.9167)" fill="#39D2C0">
            <path d="M32.0833333,2.22044605e-15 C14.3641976,2.22044605e-15 2.22044605e-15,14.3641976 2.22044605e-15,32.0833333 C2.22044605e-15,49.8024691 14.3641976,64.1666667 32.0833333,64.1666667 C49.8024691,64.1666667 64.1666667,49.8024691 64.1666667,32.0833333 C64.1475107,14.3721384 49.7945283,0.0191560162 32.0833333,2.22044605e-15 Z M58.8194493,32.0833333 C58.8226224,37.3228332 57.2766462,42.4463212 54.3759028,46.8095833 L51.1889583,43.6199653 C50.9390587,43.3694331 50.7986863,43.0300395 50.7986111,42.6761806 L50.7986111,40.1041667 C50.7986111,35.6743827 47.2075617,32.0833333 42.7777778,32.0833333 L34.7569444,32.0833333 C33.2803498,32.0833333 32.0833333,30.8863169 32.0833333,29.4097222 L32.0833333,28.0729167 C32.0833333,27.3346193 32.6818416,26.7361111 33.4201389,26.7361111 C37.1116255,26.7361111 40.1041667,23.7435699 40.1041667,20.0520833 L40.1041667,17.3784722 C40.1041667,16.6401749 40.7026749,16.0416667 41.4409722,16.0416667 L45.1278819,16.0416667 C46.8988656,16.0366283 48.5964176,15.3333979 49.8521528,14.0845833 L50.8601042,13.0766319 C55.9540212,18.0889438 58.8217127,24.9369178 58.8194493,32.0833333 Z M5.47822917,34.6580208 L13.9214931,43.1012847 C15.4222973,44.6117676 17.4655941,45.4581663 19.5948958,45.4513889 L26.7361111,45.4513889 C28.2127058,45.4513889 29.4097222,46.6484054 29.4097222,48.125 L29.4097222,58.6830903 C16.7322593,57.3890154 6.72282001,47.3404374 5.47822917,34.6580208 L5.47822917,34.6580208 Z M34.7569444,58.6830903 L34.7569444,48.125 C34.7569444,43.6952161 31.165895,40.1041667 26.7361111,40.1041667 L19.5948958,40.1041667 C18.8849416,40.1047248 18.2039167,39.8228882 17.7019792,39.3207986 L5.78302083,27.4018403 C7.33722669,18.566796 13.2278426,11.1044322 21.460528,7.54122383 C29.6932135,3.9780155 39.1655477,4.79110404 46.6705556,9.70520833 L46.0716667,10.3040972 C45.8199969,10.5522858 45.4813375,10.6923545 45.1278819,10.6944444 L41.4409722,10.6944444 C37.7494856,10.6944444 34.7569444,13.6869856 34.7569444,17.3784722 L34.7569444,20.0520833 C34.7569444,20.7903807 34.1584362,21.3888889 33.4201389,21.3888889 C29.7286523,21.3888889 26.7361111,24.3814301 26.7361111,28.0729167 L26.7361111,29.4097222 C26.7361111,33.8395062 30.3271605,37.4305556 34.7569444,37.4305556 L42.7777778,37.4305556 C44.2543724,37.4305556 45.4513889,38.627572 45.4513889,40.1041667 L45.4513889,42.6761806 C45.4564273,44.4471642 46.1596577,46.1447162 47.4084722,47.4004514 L50.9830903,50.9750694 C46.6290016,55.3442462 40.894523,58.0683361 34.7569444,58.6830903 L34.7569444,58.6830903 Z" id="Shape"></path>
        </g>
    </g>
</svg>