<?xml version="1.0" encoding="UTF-8"?>
<svg width="70px" height="70px" viewBox="0 0 70 70" version="1.1" xmlns="http://www.w3.org/2000/svg" xmlns:xlink="http://www.w3.org/1999/xlink">
    <title>SVG /iconFeatures_3</title>
    <g id="iconFeatures_3" stroke="none" stroke-width="1" fill="none" fill-rule="evenodd">
        <g id="UI-Icons-/-addThemeMagic_ai" transform="translate(5.8333, 5.8333)" fill="#39D2C0">
            <path d="M46.6666667,8.75 C48.2774972,8.75 49.5833333,10.0558361 49.5833333,11.6666667 C49.5833333,13.1624379 48.4573828,14.3952292 47.0068116,14.5637108 L46.6666667,14.5833333 L14.5833333,14.5833333 C12.9725028,14.5833333 11.6666667,13.2774972 11.6666667,11.6666667 C11.6666667,10.1708955 12.7926172,8.93810411 14.2431884,8.76962255 L14.5833333,8.75 L46.6666667,8.75 Z M53.9583333,20.4166667 C55.5691639,20.4166667 56.875,21.7225028 56.875,23.3333333 C56.875,24.8291045 55.7490494,26.0618959 54.2984783,26.2303775 L53.9583333,26.25 L27.7083333,26.25 C26.0975028,26.25 24.7916667,24.9441639 24.7916667,23.3333333 C24.7916667,21.8375621 25.9176172,20.6047708 27.3681884,20.4362892 L27.7083333,20.4166667 L53.9583333,20.4166667 Z M46.6666667,32.0833333 C48.2774972,32.0833333 49.5833333,33.3891695 49.5833333,35 C49.5833333,36.4957712 48.4573828,37.7285626 47.0068116,37.8970441 L46.6666667,37.9166667 L26.25,37.9166667 C24.6391695,37.9166667 23.3333333,36.6108305 23.3333333,35 C23.3333333,33.5042288 24.4592839,32.2714374 25.9098551,32.1029559 L26.25,32.0833333 L46.6666667,32.0833333 Z M35,43.75 C36.6108305,43.75 37.9166667,45.0558361 37.9166667,46.6666667 C37.9166667,48.1624379 36.7907161,49.3952292 35.3401449,49.5637108 L35,49.5833333 L14.5833333,49.5833333 C12.9725028,49.5833333 11.6666667,48.2774972 11.6666667,46.6666667 C11.6666667,45.1708955 12.7926172,43.9381041 14.2431884,43.7696225 L14.5833333,43.75 L35,43.75 Z M1.45833333,4.4408921e-15 C2.17425801,4.4408921e-15 2.76969108,0.468987168 2.89317096,1.08745097 L2.91666667,1.32575758 L2.91666667,57.0075758 C2.91666667,57.7397714 2.26374859,58.3333333 1.45833333,58.3333333 C0.742408658,58.3333333 0.146975586,57.8643462 0.0234957025,57.2458824 L8.8817842e-16,57.0075758 L8.8817842e-16,1.32575758 C8.8817842e-16,0.593561885 0.652918073,4.4408921e-15 1.45833333,4.4408921e-15 Z" id="Combined-Shape"></path>
        </g>
    </g>
</svg>