<?xml version="1.0" encoding="UTF-8"?>
<svg width="70px" height="70px" viewBox="0 0 70 70" version="1.1" xmlns="http://www.w3.org/2000/svg" xmlns:xlink="http://www.w3.org/1999/xlink">
    <title>SVG /iconFeatures_1</title>
    <g id="iconFeatures_1" stroke="none" stroke-width="1" fill="none" fill-rule="evenodd">
        <g id="UI-Icons-/-addWidgetsMagic" transform="translate(5.8333, 4.1119)" fill="#39D2C0">
            <path d="M7.29166667,1.72140027 C11.318743,1.72140027 14.5833333,4.98599063 14.5833333,9.01306693 C14.5833333,11.1971636 13.6230648,13.1569776 12.1016918,14.4933447 C13.7823639,17.1345776 15.3898704,19.7304 16.9242208,22.2800467 C18.2878195,24.5459536 18.6644597,26.5674443 18.6203572,30.4888993 L18.5852024,32.052694 L18.4878644,34.9927347 L18.480652,35.9165047 C18.4950208,40.6186997 19.5234426,43.6464034 22.5690783,46.2720713 C26.3334856,49.5173982 30.5373459,51.0493539 35.2483593,50.8723885 C36.080743,47.7615137 38.9187625,45.4714003 42.2916667,45.4714003 C46.318743,45.4714003 49.5833333,48.7359906 49.5833333,52.7630669 C49.5833333,56.7901432 46.318743,60.0547336 42.2916667,60.0547336 C38.6145294,60.0547336 35.5731208,57.3328556 35.0723111,53.7939697 C29.7509266,53.9278789 24.9263392,52.1552033 20.6646212,48.4811407 C17.0683884,45.3807984 15.7167707,41.7759504 15.5762694,36.7336513 L15.5640842,35.5999443 L15.5895648,34.2253827 L15.6690082,31.9889759 L15.7021418,30.5294676 C15.7415994,27.1245137 15.4392872,25.4691077 14.4251747,23.7839461 C12.8813546,21.2185633 11.262357,18.6052364 9.56818376,15.9439881 C8.85076146,16.1777031 8.08604884,16.3047336 7.29166667,16.3047336 C3.26459037,16.3047336 4.4408921e-15,13.0401432 4.4408921e-15,9.01306693 C4.4408921e-15,4.98599063 3.26459037,1.72140027 7.29166667,1.72140027 Z M36.3032908,0.258202545 L59.7126689,12.9110114 C61.1856978,13.7071861 61.2473533,15.8159 59.8216701,16.6390186 L49.5552698,22.5671818 L56.8864727,35.2653542 C57.4778202,36.289598 57.1462247,37.5881298 56.1458333,38.165706 C55.228808,38.6951508 54.068129,38.4350103 53.4255626,37.5990482 L53.2637353,37.3569426 L45.9326855,24.6586818 L35.6652569,30.5857303 C34.2841262,31.3831264 32.5560512,30.3684456 32.4921317,28.7825448 L32.4912085,28.6273289 L33.2382436,2.02780839 C33.2821894,0.463039093 34.926188,-0.486123912 36.3032908,0.258202545 Z M37.3521175,5.61236204 L36.8102801,24.9818015 L45.5504187,19.9340426 C45.5674109,19.9235669 45.5846067,19.9133041 45.6020048,19.9032593 L45.648944,19.879227 L54.399878,14.8264424 L37.3521175,5.61236204 Z" id="Combined-Shape"></path>
        </g>
    </g>
</svg>