<?xml version="1.0" encoding="UTF-8"?>
<svg width="24px" height="24px" viewBox="0 0 24 24" version="1.1" xmlns="http://www.w3.org/2000/svg" xmlns:xlink="http://www.w3.org/1999/xlink">
    <title>UI Icons /SVG /logo-reddit</title>
    <g id="UI-Icons-/logo-reddit" stroke="none" stroke-width="1" fill="none" fill-rule="evenodd">
        <g id="logo-reddit" transform="translate(0.000000, 2.000000)" fill="#95A1AC" fill-rule="nonzero">
            <path d="M24,9.82952183 C24,8.23284823 22.7027027,6.93555094 21.1060291,6.93555094 C20.4074844,6.93555094 19.8087318,7.18503119 19.3097713,7.58419958 C17.5634096,6.48648649 15.3180873,5.83783784 12.9230769,5.68814969 L14.1704782,1.74636175 L17.6133056,2.54469854 C17.7130977,3.79209979 18.7609148,4.79002079 20.008316,4.79002079 C21.3555094,4.79002079 22.4033264,3.69230769 22.4033264,2.3950104 C22.4033264,1.04781705 21.3056133,0 20.008316,0 C19.0602911,0 18.2619543,0.548856549 17.8627859,1.2972973 L13.8711019,0.349272349 C13.5218295,0.249480249 13.2224532,0.449064449 13.0727651,0.798336798 L11.5259875,5.68814969 C8.93139293,5.73804574 6.53638254,6.43659044 4.64033264,7.58419958 C4.14137214,7.18503119 3.54261954,6.98544699 2.89397089,6.98544699 C1.2972973,6.98544699 0,8.28274428 0,9.87941788 C0,10.8773389 0.498960499,11.7255717 1.24740125,12.2245322 C1.1975052,12.4740125 1.1975052,12.6735967 1.1975052,12.9230769 C1.1975052,14.9189189 2.34511435,16.7650728 4.44074844,18.1122661 C6.43659044,19.4095634 9.08108108,20.1580042 11.9251559,20.1580042 C14.7193347,20.1580042 17.4137214,19.4594595 19.4095634,18.1122661 C21.5051975,16.7650728 22.6528067,14.9189189 22.6528067,12.9230769 C22.6528067,12.7234927 22.6528067,12.5239085 22.6029106,12.2744283 C23.4511435,11.7255717 24,10.8274428 24,9.82952183 Z M20.008316,1.24740125 C20.6070686,1.24740125 21.1060291,1.74636175 21.1060291,2.34511435 C21.1060291,2.94386694 20.6070686,3.44282744 20.008316,3.44282744 C19.4095634,3.44282744 18.9106029,2.94386694 18.9106029,2.34511435 C18.9106029,1.74636175 19.4095634,1.24740125 20.008316,1.24740125 Z M6.83575884,11.5758836 C6.83575884,10.6777547 7.58419958,9.92931393 8.48232848,9.92931393 C9.38045738,9.92931393 10.0790021,10.6777547 10.0790021,11.5758836 C10.0790021,12.4740125 9.33056133,13.1725572 8.48232848,13.1725572 C7.58419958,13.2224532 6.83575884,12.4740125 6.83575884,11.5758836 Z M15.966736,16.3659044 C15.1185031,17.2141372 13.8711019,17.6133056 12.024948,17.6133056 C12.024948,17.6133056 12.024948,17.6133056 12.024948,17.6133056 C12.024948,17.6133056 12.024948,17.6133056 12.024948,17.6133056 C10.2286902,17.6133056 8.93139293,17.2141372 8.08316008,16.3659044 C7.83367983,16.1164241 7.83367983,15.7172557 8.08316008,15.4178794 C8.33264033,15.1683992 8.73180873,15.1683992 9.03118503,15.4178794 C9.62993763,16.016632 10.5779626,16.2661123 12.024948,16.2661123 C12.024948,16.2661123 12.024948,16.2661123 12.024948,16.2661123 C12.024948,16.2661123 12.024948,16.2661123 12.024948,16.2661123 C13.4719335,16.2661123 14.4698545,15.966736 15.018711,15.4178794 C15.2681913,15.1683992 15.6673597,15.1683992 15.966736,15.4178794 C16.2162162,15.6673597 16.2162162,16.1164241 15.966736,16.3659044 Z M15.5675676,13.2224532 C14.6694387,13.2224532 13.9209979,12.4740125 13.9209979,11.6257796 C13.9209979,10.7775468 14.6694387,9.97920998 15.5675676,9.97920998 C16.4656965,9.97920998 17.1642412,10.7276507 17.1642412,11.6257796 C17.1642412,12.5239085 16.4656965,13.2224532 15.5675676,13.2224532 Z" id="Shape"></path>
        </g>
    </g>
</svg>