<?xml version="1.0" encoding="UTF-8"?>
<svg width="50px" height="50px" viewBox="0 0 50 50" version="1.1" xmlns="http://www.w3.org/2000/svg" xmlns:xlink="http://www.w3.org/1999/xlink">
    <title>UI Elements /ent/SVG /multiPlatformResponsive</title>
    <g id="UI-Elements-/ent/multiPlatformResponsive" stroke="none" stroke-width="1" fill="none" fill-rule="evenodd">
        <path d="M40.7146985,12 C42.7194107,12.0023734 44.4159845,13.3042631 44.9885045,15.0992301 L43.042679,15.0987506 C42.5776679,14.3052178 41.7092523,13.7714286 40.7146985,13.7714286 L25.4806133,13.7714286 C23.9958687,13.7714286 22.7922453,14.961072 22.7922453,16.4285714 L22.7922453,35.0285714 C22.7922453,36.4960709 23.9958687,37.6857143 25.4806133,37.6857143 L31.977,37.685 L31.9775026,41 C31.9775026,42.0543618 32.7933804,42.9181651 33.8282402,42.9945143 L33.9775026,43 L37.751,42.999 L37.6202303,42.9941153 C36.1601952,42.8870146 35.0017734,41.3320564 35,39.4285714 L35,21.5714286 C35.0018367,19.599962 36.2444149,18.0023615 37.7777778,18 L47.2222222,18 C48.7555851,18.0023615 49.9981633,19.599962 50,21.5714286 L50,39.4285714 C49.9981633,41.400038 48.7555851,42.9976385 47.2222222,43 L25.4806133,43 C23.0072671,42.9970717 21.0029627,41.0160471 21,38.5714286 L21,16.4285714 C21.0029627,13.9839529 23.0072671,12.0029283 25.4806133,12 L40.7146985,12 Z M47.2222222,19.4285714 L37.7777778,19.4285714 C36.8573032,19.4285714 36.1111111,20.3879613 36.1111111,21.5714286 L36.1111111,38 C36.1111111,39.1834673 36.8573032,40.1428571 37.7777778,40.1428571 L47.2222222,40.1428571 C48.1426968,40.1428571 48.8888889,39.1834673 48.8888889,38 L48.8888889,21.5714286 C48.8888889,20.3879613 48.1426968,19.4285714 47.2222222,19.4285714 Z M17.6006115,35 L17.6006115,37.0171609 C18.067808,37.035517 18.5346449,37.0590258 19.0010186,37.0876759 L19.0003637,38.0984756 C18.1667659,38.0481654 17.3317026,38.014903 16.4958114,37.9987526 C13.1936233,38.0620309 9.90435529,38.3930522 6.66750997,38.9878412 C6.47439954,39.0249814 6.27405849,38.9660886 6.14195334,38.8333471 C6.00984818,38.7006057 5.96604885,38.5141822 6.02705413,38.3443006 C6.0880594,38.1744189 6.24460113,38.0468882 6.43771155,38.0097481 C9.38879302,37.4671645 12.3824448,37.1352801 15.3910113,37.0171609 L15.3910113,35 L17.6006115,35 Z M31.9,8 C32.5075132,8 33,8.48664701 33,9.08695652 L33,10 L31.9,10 L31.9,9.63043478 L1.1,9.63043478 L1.1,29.1956522 L19,29.195 L19,33 L1.1,33 C0.532987657,33 0.066176132,32.5760764 0.00645465024,32.0314794 L0,31.9130435 L0,9.08695652 C0,8.48664701 0.492486775,8 1.1,8 L31.9,8 Z" id="Combined-Shape" fill="#39D2C0"></path>
    </g>
</svg>